<svg xmlns="http://www.w3.org/2000/svg" xmlns:xlink="http://www.w3.org/1999/xlink" viewBox="0 0 141 82" fill="#fff" fill-rule="evenodd" stroke="#000" stroke-linecap="round" stroke-linejoin="round"><use xlink:href="#A" x=".5" y=".5"/><symbol id="A" overflow="visible"><path d="M139.053 42.001c1.398-1.393 1.118-3.622 0-5.015l-6.709-6.687L102.15 1.045c-1.398-1.393-3.355-1.393-4.753 0h0c-1.398 1.393-1.678 3.622 0 5.015l31.591 30.926a3.52 3.52 0 0 1 0 5.015l-32.15 32.041a3.52 3.52 0 0 0 0 5.015h0c1.398 1.393 3.635 1.115 4.753 0l29.914-29.533.28-.279 7.269-7.244zm-138.107 0c-1.398-1.393-1.118-3.622 0-5.015l6.71-6.687L37.85 1.045c1.398-1.393 3.355-1.393 4.753 0h0c1.398 1.393 1.678 3.622 0 5.015L11.57 36.986a3.52 3.52 0 0 0 0 5.015l31.592 32.041a3.52 3.52 0 0 1 0 5.015h0c-1.398 1.393-3.635 1.115-4.753 0L7.936 49.802l-.28-.279L.947 42z" fill="#3999c6" stroke="none"/><path d="M50.99 39.493c0 5.293-4.473 9.194-9.226 9.194s-9.785-4.458-9.785-9.194 3.914-9.194 9.785-9.194c5.591 0 9.226 4.458 9.226 9.194zm28.236 0c0 5.293-4.473 9.194-9.226 9.194s-9.785-4.458-9.785-9.194 4.473-9.194 9.785-9.194 9.226 4.458 9.226 9.194zm10.064 0c0-5.094 4.115-9.194 9.226-9.194s9.226 4.101 9.226 9.194-4.115 9.194-9.226 9.194-9.226-4.101-9.226-9.194z" stroke="none" fill="#7fba00"/></symbol></svg>