<svg width="15" height="15" viewBox="0 0 15 15" fill="none" xmlns="http://www.w3.org/2000/svg">
<path d="M1.5 0C1.70833 0 1.90365 0.0390625 2.08594 0.117188C2.26823 0.195312 2.42708 0.302083 2.5625 0.4375C2.69792 0.572917 2.80469 0.731771 2.88281 0.914062C2.96094 1.09635 3 1.29167 3 1.5C3 1.70833 2.96094 1.90365 2.88281 2.08594C2.80469 2.26823 2.69792 2.42708 2.5625 2.5625C2.42708 2.69792 2.26823 2.80469 2.08594 2.88281C1.90365 2.96094 1.70833 3 1.5 3C1.29167 3 1.09635 2.96094 0.914062 2.88281C0.731771 2.80469 0.572917 2.69792 0.4375 2.5625C0.302083 2.42708 0.195312 2.26823 0.117188 2.08594C0.0390625 1.90365 0 1.70833 0 1.5C0 1.29167 0.0390625 1.09635 0.117188 0.914062C0.195312 0.731771 0.302083 0.572917 0.4375 0.4375C0.572917 0.302083 0.731771 0.195312 0.914062 0.117188C1.09635 0.0390625 1.29167 0 1.5 0ZM7.5 0C7.70833 0 7.90365 0.0390625 8.08594 0.117188C8.26823 0.195312 8.42708 0.302083 8.5625 0.4375C8.69792 0.572917 8.80469 0.731771 8.88281 0.914062C8.96094 1.09635 9 1.29167 9 1.5C9 1.70833 8.96094 1.90365 8.88281 2.08594C8.80469 2.26823 8.69792 2.42708 8.5625 2.5625C8.42708 2.69792 8.26823 2.80469 8.08594 2.88281C7.90365 2.96094 7.70833 3 7.5 3C7.29167 3 7.09635 2.96094 6.91406 2.88281C6.73177 2.80469 6.57292 2.69792 6.4375 2.5625C6.30208 2.42708 6.19531 2.26823 6.11719 2.08594C6.03906 1.90365 6 1.70833 6 1.5C6 1.29167 6.03906 1.09635 6.11719 0.914062C6.19531 0.731771 6.30208 0.572917 6.4375 0.4375C6.57292 0.302083 6.73177 0.195312 6.91406 0.117188C7.09635 0.0390625 7.29167 0 7.5 0ZM13.5 3C13.2917 3 13.0964 2.96094 12.9141 2.88281C12.7318 2.80469 12.5729 2.69792 12.4375 2.5625C12.3021 2.42708 12.1953 2.26823 12.1172 2.08594C12.0391 1.90365 12 1.70833 12 1.5C12 1.29167 12.0391 1.09635 12.1172 0.914062C12.1953 0.731771 12.3021 0.572917 12.4375 0.4375C12.5729 0.302083 12.7318 0.195312 12.9141 0.117188C13.0964 0.0390625 13.2917 0 13.5 0C13.7083 0 13.9036 0.0390625 14.0859 0.117188C14.2682 0.195312 14.4271 0.302083 14.5625 0.4375C14.6979 0.572917 14.8047 0.731771 14.8828 0.914062C14.9609 1.09635 15 1.29167 15 1.5C15 1.70833 14.9609 1.90365 14.8828 2.08594C14.8047 2.26823 14.6979 2.42708 14.5625 2.5625C14.4271 2.69792 14.2682 2.80469 14.0859 2.88281C13.9036 2.96094 13.7083 3 13.5 3ZM1.5 6C1.70833 6 1.90365 6.03906 2.08594 6.11719C2.26823 6.19531 2.42708 6.30208 2.5625 6.4375C2.69792 6.57292 2.80469 6.73177 2.88281 6.91406C2.96094 7.09635 3 7.29167 3 7.5C3 7.70833 2.96094 7.90365 2.88281 8.08594C2.80469 8.26823 2.69792 8.42708 2.5625 8.5625C2.42708 8.69792 2.26823 8.80469 2.08594 8.88281C1.90365 8.96094 1.70833 9 1.5 9C1.29167 9 1.09635 8.96094 0.914062 8.88281C0.731771 8.80469 0.572917 8.69792 0.4375 8.5625C0.302083 8.42708 0.195312 8.26823 0.117188 8.08594C0.0390625 7.90365 0 7.70833 0 7.5C0 7.29167 0.0390625 7.09635 0.117188 6.91406C0.195312 6.73177 0.302083 6.57292 0.4375 6.4375C0.572917 6.30208 0.731771 6.19531 0.914062 6.11719C1.09635 6.03906 1.29167 6 1.5 6ZM7.5 6C7.70833 6 7.90365 6.03906 8.08594 6.11719C8.26823 6.19531 8.42708 6.30208 8.5625 6.4375C8.69792 6.57292 8.80469 6.73177 8.88281 6.91406C8.96094 7.09635 9 7.29167 9 7.5C9 7.70833 8.96094 7.90365 8.88281 8.08594C8.80469 8.26823 8.69792 8.42708 8.5625 8.5625C8.42708 8.69792 8.26823 8.80469 8.08594 8.88281C7.90365 8.96094 7.70833 9 7.5 9C7.29167 9 7.09635 8.96094 6.91406 8.88281C6.73177 8.80469 6.57292 8.69792 6.4375 8.5625C6.30208 8.42708 6.19531 8.26823 6.11719 8.08594C6.03906 7.90365 6 7.70833 6 7.5C6 7.29167 6.03906 7.09635 6.11719 6.91406C6.19531 6.73177 6.30208 6.57292 6.4375 6.4375C6.57292 6.30208 6.73177 6.19531 6.91406 6.11719C7.09635 6.03906 7.29167 6 7.5 6ZM13.5 6C13.7083 6 13.9036 6.03906 14.0859 6.11719C14.2682 6.19531 14.4271 6.30208 14.5625 6.4375C14.6979 6.57292 14.8047 6.73177 14.8828 6.91406C14.9609 7.09635 15 7.29167 15 7.5C15 7.70833 14.9609 7.90365 14.8828 8.08594C14.8047 8.26823 14.6979 8.42708 14.5625 8.5625C14.4271 8.69792 14.2682 8.80469 14.0859 8.88281C13.9036 8.96094 13.7083 9 13.5 9C13.2917 9 13.0964 8.96094 12.9141 8.88281C12.7318 8.80469 12.5729 8.69792 12.4375 8.5625C12.3021 8.42708 12.1953 8.26823 12.1172 8.08594C12.0391 7.90365 12 7.70833 12 7.5C12 7.29167 12.0391 7.09635 12.1172 6.91406C12.1953 6.73177 12.3021 6.57292 12.4375 6.4375C12.5729 6.30208 12.7318 6.19531 12.9141 6.11719C13.0964 6.03906 13.2917 6 13.5 6ZM1.5 12C1.70833 12 1.90365 12.0391 2.08594 12.1172C2.26823 12.1953 2.42708 12.3021 2.5625 12.4375C2.69792 12.5729 2.80469 12.7318 2.88281 12.9141C2.96094 13.0964 3 13.2917 3 13.5C3 13.7083 2.96094 13.9036 2.88281 14.0859C2.80469 14.2682 2.69792 14.4271 2.5625 14.5625C2.42708 14.6979 2.26823 14.8047 2.08594 14.8828C1.90365 14.9609 1.70833 15 1.5 15C1.29167 15 1.09635 14.9609 0.914062 14.8828C0.731771 14.8047 0.572917 14.6979 0.4375 14.5625C0.302083 14.4271 0.195312 14.2682 0.117188 14.0859C0.0390625 13.9036 0 13.7083 0 13.5C0 13.2917 0.0390625 13.0964 0.117188 12.9141C0.195312 12.7318 0.302083 12.5729 0.4375 12.4375C0.572917 12.3021 0.731771 12.1953 0.914062 12.1172C1.09635 12.0391 1.29167 12 1.5 12ZM7.5 12C7.70833 12 7.90365 12.0391 8.08594 12.1172C8.26823 12.1953 8.42708 12.3021 8.5625 12.4375C8.69792 12.5729 8.80469 12.7318 8.88281 12.9141C8.96094 13.0964 9 13.2917 9 13.5C9 13.7083 8.96094 13.9036 8.88281 14.0859C8.80469 14.2682 8.69792 14.4271 8.5625 14.5625C8.42708 14.6979 8.26823 14.8047 8.08594 14.8828C7.90365 14.9609 7.70833 15 7.5 15C7.29167 15 7.09635 14.9609 6.91406 14.8828C6.73177 14.8047 6.57292 14.6979 6.4375 14.5625C6.30208 14.4271 6.19531 14.2682 6.11719 14.0859C6.03906 13.9036 6 13.7083 6 13.5C6 13.2917 6.03906 13.0964 6.11719 12.9141C6.19531 12.7318 6.30208 12.5729 6.4375 12.4375C6.57292 12.3021 6.73177 12.1953 6.91406 12.1172C7.09635 12.0391 7.29167 12 7.5 12ZM13.5 12C13.7083 12 13.9036 12.0391 14.0859 12.1172C14.2682 12.1953 14.4271 12.3021 14.5625 12.4375C14.6979 12.5729 14.8047 12.7318 14.8828 12.9141C14.9609 13.0964 15 13.2917 15 13.5C15 13.7083 14.9609 13.9036 14.8828 14.0859C14.8047 14.2682 14.6979 14.4271 14.5625 14.5625C14.4271 14.6979 14.2682 14.8047 14.0859 14.8828C13.9036 14.9609 13.7083 15 13.5 15C13.2917 15 13.0964 14.9609 12.9141 14.8828C12.7318 14.8047 12.5729 14.6979 12.4375 14.5625C12.3021 14.4271 12.1953 14.2682 12.1172 14.0859C12.0391 13.9036 12 13.7083 12 13.5C12 13.2917 12.0391 13.0964 12.1172 12.9141C12.1953 12.7318 12.3021 12.5729 12.4375 12.4375C12.5729 12.3021 12.7318 12.1953 12.9141 12.1172C13.0964 12.0391 13.2917 12 13.5 12Z" fill="white"/>
</svg>
