<svg width="30" height="30" fill="none" xmlns="http://www.w3.org/2000/svg"><path d="M15 8.567C9.1 8.567 4.316 6.9 4.316 4.7v20.6c0 2.116 4.7 3.833 10.534 3.866H15c5.9 0 10.683-1.666 10.683-3.866V4.7c0 2.15-4.783 3.867-10.683 3.867z" fill="url(#paint0_linear)"/><path d="M25.683 4.7c0 2.15-4.783 3.867-10.683 3.867C9.1 8.567 4.316 6.9 4.316 4.7S9.1.833 15 .833C20.9.833 25.683 2.5 25.683 4.7z" fill="#E8E8E8"/><path d="M23.2 4.383c0 1.367-3.683 2.467-8.2 2.467-4.516 0-8.2-1.1-8.2-2.467 0-1.366 3.684-2.45 8.2-2.45 4.517 0 8.2 1.1 8.2 2.45z" fill="#50E6FF"/><path d="M15 5a19.25 19.25 0 00-6.483.95c2.093.672 4.287.977 6.483.9a18.584 18.584 0 006.484-.967A19.734 19.734 0 0015 5z" fill="#198AB3"/><path d="M21.067 15v2.717H19.4a.65.65 0 01-.483-.234V15h-2.25v2.967a1.534 1.534 0 001.666 1.483h2.484l.433-.217s-.183.684-.433.717H16.85v1.667h4.433a2.017 2.017 0 002.05-2.117V15h-2.266zM15.883 15v-.817a1.167 1.167 0 00-.8-1.283 2.9 2.9 0 00-.834-.133 1.566 1.566 0 00-1.516.966l-1.3 3.167-1.667-3.167a1.55 1.55 0 00-1.433-.966c-.29-.002-.578.049-.85.15-.584.183-.717.566-.717 1.216v5.517h1.95v-3.717l1.05 2.617a1.8 1.8 0 001.667 1.1c.733 0 1.033-.433 1.333-1.1l1.117-2.517v3.584h1.966V15h.034z" fill="#F2F2F2"/><defs><linearGradient id="paint0_linear" x1="4.316" y1="16.933" x2="25.683" y2="16.933" gradientUnits="userSpaceOnUse"><stop stop-color="#005BA1"/><stop offset=".07" stop-color="#0060A9"/><stop offset=".36" stop-color="#0071C8"/><stop offset=".52" stop-color="#0078D4"/><stop offset=".64" stop-color="#0074CD"/><stop offset=".82" stop-color="#006ABB"/><stop offset="1" stop-color="#005BA1"/></linearGradient></defs></svg>