<svg width="30" height="30" fill="none" xmlns="http://www.w3.org/2000/svg"><path d="M15 8.567C9.1 8.567 4.316 6.9 4.316 4.7v20.6c0 2.116 4.7 3.833 10.534 3.866H15c5.9 0 10.683-1.666 10.683-3.866V4.7c0 2.133-4.783 3.867-10.683 3.867z" fill="url(#paint0_linear)"/><path d="M25.683 4.7c0 2.133-4.783 3.867-10.683 3.867C9.1 8.567 4.316 6.9 4.316 4.7S9.1.833 15 .833C20.9.833 25.683 2.5 25.683 4.7z" fill="#E8E8E8"/><path d="M23.184 4.383c0 1.367-3.667 2.467-8.184 2.467-4.516 0-8.2-1.1-8.2-2.45s3.667-2.467 8.2-2.467c4.534 0 8.184 1.1 8.184 2.45z" fill="#50E6FF"/><path d="M15 5a19.417 19.417 0 00-6.5.95c2.099.67 4.297.975 6.5.9 2.2.053 4.393-.274 6.483-.967A19.883 19.883 0 0014.999 5z" fill="#198AB3"/><path d="M20 15v.7c-.066.347-.11.698-.133 1.05 0 .2 0 .5.083.767.084.266 0 .45 0 .6a2.8 2.8 0 01-.416 1.433.71.71 0 000 .117l.166.2a17.586 17.586 0 001.767-3.967c.466-1.583.517-2.717.15-3.2a4.3 4.3 0 00-4.467-1.433c.566.282 1.08.66 1.517 1.116A3.8 3.8 0 0120 15zm-.517.133a1.917 1.917 0 00-1.316.15c-.484.3-.334.917 0 1.667.166.483.361.956.583 1.417l.15.266c.084.134.134.25.184.334l.133.216c.195-.328.299-.702.3-1.083.01-.183.01-.367 0-.55 0-.283 0-.6-.084-.817.023-.385.068-.77.134-1.15a1.288 1.288 0 01-.017-.5l-.067.05zm-.5.684a.666.666 0 01-.3.166.55.55 0 01-.233 0 .383.383 0 01-.116-.316c0-.117.183-.217.4-.25h.316s.15 0 .15.133a.334.334 0 01-.15.217l-.067.05zM11.168 17.3v-.283a1.675 1.675 0 000-.284 9.242 9.242 0 010-1.666c.1-.628.267-1.243.5-1.834.196-.59.527-1.126.966-1.566a7.968 7.968 0 00-2.25-.334 3.117 3.117 0 00-1.833.5 3.333 3.333 0 00-1.05 3.034c.16 1.267.44 2.517.834 3.733.566 1.9 1.216 3.067 1.783 3.25.25.083.516 0 .783-.35.467-.567.9-1.05 1.15-1.333a3.133 3.133 0 01-.817-2.917l-.066.05zm.433.667a3.63 3.63 0 00.1.933 2.5 2.5 0 00.434.733c.164.177.362.319.583.417.207.084.427.13.65.133 0-.283.233-.633.383-1 .14-.319.257-.647.35-.983a11.01 11.01 0 000-1.85c0-.15 0-.317-.1-.5a.75.75 0 00-.2-.45 1.1 1.1 0 00-.466-.267H13a2.603 2.603 0 00-.8.234 3.336 3.336 0 00-.533.316v1.2a1.45 1.45 0 010 .25v.65l-.067.184zm1.1-2.234a.767.767 0 01.467 0c.11.016.217.05.316.1.15 0 .167.184.15.234a.616.616 0 01-.2.216.497.497 0 01-.1-.066.566.566 0 01-.466-.467l-.167-.017zm1.234 5a.383.383 0 00-.217.1l-.234.284c-.283.35-.4.466-1.216.633a.867.867 0 00-.433.167.967.967 0 00.4.183c.39.125.81.125 1.2 0 .235-.114.454-.26.65-.433.161-.134.278-.315.333-.517a.6.6 0 00-.167-.467.25.25 0 00-.25-.033l-.066.083zm7.683 0a2.716 2.716 0 01-1.884 0 .367.367 0 00-.233 0 .5.5 0 00-.283.234 1.81 1.81 0 000 .516c.613.138 1.255.08 1.833-.166.305-.129.578-.322.8-.567l-.233-.017zm-4-3.566c-.233-.684-.567-1.667.3-2.267a2.25 2.25 0 011.483-.25 5.3 5.3 0 00-1.066-1.917l-.167-.166-.1-.1a.577.577 0 00-.1-.1 3.904 3.904 0 00-1.117-.7A4.383 4.383 0 0015 11.3a2.532 2.532 0 00-1.166.183c-.172.046-.34.108-.5.184-.57.418-1 .999-1.234 1.666A9.724 9.724 0 0011.75 15a2.767 2.767 0 011.667-.383 1.4 1.4 0 011.283 1.516c.062.704.062 1.413 0 2.117a6.46 6.46 0 01-.383 1.05c-.1.283-.233.583-.3.817a.833.833 0 01.633.233 1.1 1.1 0 01.317.883H15v.4a10.917 10.917 0 00.4 4.067.9.9 0 00.4.35 1 1 0 00.517.167 2.166 2.166 0 001.666-.567 1.75 1.75 0 00.484-1.1c.117-.75.367-2.833.4-3.333a1.2 1.2 0 01.15-.734 1.05 1.05 0 01.45-.4 8.933 8.933 0 01-1.784-3.016l-.066.1z" fill="#F2F2F2"/><defs><linearGradient id="paint0_linear" x1="4.303" y1="16.949" x2="25.686" y2="16.945" gradientUnits="userSpaceOnUse"><stop stop-color="#005BA1"/><stop offset=".07" stop-color="#0060A9"/><stop offset=".36" stop-color="#0071C8"/><stop offset=".52" stop-color="#0078D4"/><stop offset=".64" stop-color="#0074CD"/><stop offset=".82" stop-color="#006ABB"/><stop offset="1" stop-color="#005BA1"/></linearGradient></defs></svg>