<svg width="30" height="30" fill="none" xmlns="http://www.w3.org/2000/svg"><path d="M15 8.567C9.1 8.567 4.316 6.9 4.316 4.7v20.6c0 2.116 4.7 3.833 10.534 3.866H15c5.9 0 10.683-1.666 10.683-3.866V4.7c0 2.15-4.783 3.867-10.683 3.867z" fill="url(#paint0_linear)"/><path d="M25.683 4.7c0 2.15-4.783 3.867-10.683 3.867C9.1 8.567 4.316 6.9 4.316 4.7S9.1.833 15 .833C20.9.833 25.683 2.5 25.683 4.7z" fill="#E8E8E8"/><path d="M23.2 4.383c0 1.367-3.683 2.467-8.2 2.467-4.516 0-8.2-1.1-8.2-2.467 0-1.366 3.684-2.45 8.2-2.45 4.517 0 8.2 1.1 8.2 2.45z" fill="#50E6FF"/><path d="M15 5a19.25 19.25 0 00-6.483.95c2.093.672 4.287.977 6.483.9a18.584 18.584 0 006.484-.967A19.734 19.734 0 0015 5z" fill="#198AB3"/><path d="M21.5 19v-5.667H20v6.884h4.1V19h-2.6zM9.6 16.217a3.05 3.05 0 01-.85-.517.734.734 0 01-.2-.533.567.567 0 01.25-.5c.205-.142.451-.212.7-.2a2.7 2.7 0 011.667.483v-1.433A4.3 4.3 0 009.5 13.25a2.733 2.733 0 00-1.817.567 1.8 1.8 0 00-.7 1.483c0 .85.534 1.517 1.667 2.017.368.156.715.357 1.033.6a.7.7 0 01.25.533.633.633 0 01-.266.517 1.35 1.35 0 01-.75.183 2.767 2.767 0 01-1.817-.7V20c.55.284 1.164.422 1.783.4a3.133 3.133 0 001.967-.55 1.8 1.8 0 00.55-1.517 1.75 1.75 0 00-.417-1.166c-.39-.41-.86-.734-1.383-.95zm8.733 2.65a3.9 3.9 0 00.55-2.1 3.867 3.867 0 00-.55-1.767 3.016 3.016 0 00-1.166-1.25 3.333 3.333 0 00-1.667-.433 3.518 3.518 0 00-1.8.45A3.1 3.1 0 0012.483 15a4.1 4.1 0 00-.433 1.9c.003.579.14 1.15.4 1.667.254.514.654.943 1.15 1.233.503.307 1.077.48 1.667.5l1.433 1.667h2.017l-2.05-1.834a2.984 2.984 0 001.666-1.266zm-1.666-.417a1.567 1.567 0 01-1.267.583 1.534 1.534 0 01-1.267-.6 2.533 2.533 0 01-.483-1.666 2.55 2.55 0 01.483-1.667 1.665 1.665 0 011.3-.617 1.45 1.45 0 011.25.617 2.7 2.7 0 01.45 1.667c.059.6-.108 1.199-.466 1.683z" fill="url(#paint1_radial)"/><defs><radialGradient id="paint1_radial" cx="0" cy="0" r="1" gradientUnits="userSpaceOnUse" gradientTransform="translate(15.6 17.617) scale(11.7833)"><stop stop-color="#F2F2F2"/><stop offset=".58" stop-color="#EEE"/><stop offset="1" stop-color="#E6E6E6"/></radialGradient><linearGradient id="paint0_linear" x1="4.316" y1="16.933" x2="25.683" y2="16.933" gradientUnits="userSpaceOnUse"><stop stop-color="#005BA1"/><stop offset=".07" stop-color="#0060A9"/><stop offset=".36" stop-color="#0071C8"/><stop offset=".52" stop-color="#0078D4"/><stop offset=".64" stop-color="#0074CD"/><stop offset=".82" stop-color="#006ABB"/><stop offset="1" stop-color="#005BA1"/></linearGradient></defs></svg>