<svg version="1" xmlns="http://www.w3.org/2000/svg" width="933.333" height="933.333" viewBox="0 0 700.000000 700.000000"><path d="M289 55.1c-35.4 4.1-66.1 24.6-85.2 56.5-8 13.6-13.9 31-15.4 45.8-.6 5.7-1 7-2.7 7.4-4.4 1.1-19.6 9.2-25.3 13.4-29.2 21.7-44.3 57.5-39.3 93.4 3.1 22.2 13.6 42.4 30.7 58.5 7.9 7.5 8.3 8.1 6.6 9.4-15.9 11.5-15.8 11.4-49.9 53.4C90 415.7 75.6 434 76.7 433.7c1-.2 15.7-6.4 32.7-13.6 16.9-7.2 31.2-13.1 31.7-13.1s.9 42.3.9 101.4c0 95.8.1 101.5 1.8 102 .9.2 37 7.9 80.2 17l78.5 16.6L432 632.2l129.5-11.7.3-112.3c.2-92.5.4-112.2 1.5-112.2.8 0 12.4 2.3 25.8 5.1 30.7 6.3 35 7.1 35.5 6.6.2-.2-13.6-19-30.7-41.8-17.1-22.8-31.3-42.1-31.6-43-.2-.8-2.4-2.1-4.9-2.7-2.4-.7-4.4-1.6-4.4-2.2 0-.5 1.5-3.4 3.4-6.3 8.2-12.8 11.9-26.5 11.9-43.7 0-19.4-4.8-35.1-15.4-51-10.4-15.6-28.3-29.6-43.6-34-4-1.2-4.1-1.3-4.8-6.9-1.1-8.8-5.2-21.8-9.6-30.1-9.8-19-25.9-32.3-45.9-38-10.5-3-26.3-3.7-36-1.6-4.1.9-8.6 1.9-10 2.2-2.2.5-3.1-.3-6.8-5.6-18.9-26.8-49.2-44.7-81.3-48-11.4-1.1-15.2-1.1-25.9.1zM388 272c155.5 50.5 169.4 55.1 170.6 56.8.7.9 12.7 17 26.8 35.7 14 18.7 25.1 34.1 24.6 34.3-.5.2-15.4-2.6-33.2-6.3-40.5-8.2-170.1-34.9-186.7-38.4l-12.4-2.6-31.4-50.9c-17.2-28-31.3-51.3-31.3-51.8s.3-.7.8-.5c.4.3 32.9 10.9 72.2 23.7zm-128.3 29.1c-12.3 23.3-24.7 46.9-27.5 52.5-3.8 7.3-6 10.4-8 11.3-1.5.7-24.3 10.4-50.7 21.6-26.4 11.1-54.9 23.2-63.2 26.8-8.4 3.6-15.3 6.3-15.3 6 0-.2 11.6-14.7 25.8-32.1 22.6-27.7 26.7-32.3 33.7-37.4 76.6-55.4 127-91.6 127.3-91.4.1.2-9.8 19.4-22.1 42.7z"/></svg>