<svg id="Layer_1" data-name="Layer 1" xmlns="http://www.w3.org/2000/svg" xmlns:xlink="http://www.w3.org/1999/xlink" viewBox="0 0 902.31 310.43"><defs><style>.cls-1{font-size:119.51px;font-family:SegoeUI-Bold, Segoe UI;font-weight:700;}.cls-1,.cls-5{fill:#573594;}.cls-2{fill:#414042;}.cls-3{fill:url(#radial-gradient);}.cls-4{fill:none;}.cls-6{fill:#fff;}.cls-7{fill:#927bb9;}</style><radialGradient id="radial-gradient" cx="132.27" cy="89.97" r="79.98" gradientUnits="userSpaceOnUse"><stop offset="0.18" stop-color="#6a9dd3"/><stop offset="1" stop-color="#2f76bc"/></radialGradient></defs><text class="cls-1" transform="translate(293.24 234.04)">Nubes<tspan class="cls-2" x="358.05" y="0">Gen</tspan></text><path class="cls-3" d="M114.82,26.72c-27.06,0-46.68,21.94-48.12,45.94a41.35,41.35,0,0,0,13.23,80.56H184.61c24.09,0,41.44-16.53,41.44-37.08,0-16.16-10.57-31.82-26.58-36.19-1-12.63-7.24-22.35-15.88-27.53a32.72,32.72,0,0,0-27.81-2.59,47.53,47.53,0,0,0-41-23.11Z"/><rect class="cls-4" x="94.62" y="153.22" width="244.49" height="244.49"/><path class="cls-5" d="M223.3,139.39v-.87L114.41,103.17v0h-.62L47.92,150.79l-28.47,35,28.47-12.05V259l66.49,14.08v.05l108.89-9.89V169.39l26.56,5.45ZM47.92,154.85l1.77-2.19,56.75-41L83,156.12,47.92,171l-20,8.47ZM220.74,260.93,117,270.35V113.09L142,190.94l78.72,10.84Zm2-94.26-.75-.15-1.28-.26L146.21,151,119.62,107.8l13.29,4.31,87.83,28.52.38.12.9,1.2,1.28,1.71L243.76,171l-20.46-4.2Z"/><polygon class="cls-6" points="222.77 166.67 222.02 166.52 220.74 166.26 146.21 150.98 119.62 107.8 132.91 112.11 220.74 140.63 221.12 140.75 222.02 141.95 223.3 143.66 243.76 170.98 223.3 166.78 222.77 166.67"/><polygon class="cls-6" points="47.92 154.85 49.69 152.66 106.44 111.68 83.03 156.12 47.92 170.98 27.93 179.44 47.92 154.85"/><polygon class="cls-7" points="220.74 260.93 116.97 270.35 116.97 113.09 142.02 190.94 220.74 201.78 220.74 260.93"/></svg>